<svg xmlns="http://www.w3.org/2000/svg" xmlns:xlink="http://www.w3.org/1999/xlink" xmlns:lucid="lucid" width="1170" height="820"><g transform="translate(-1.3207547169811278 -1.3207547169811278)" lucid:page-tab-id="0_0"><path d="M631.32 201.32h200v140h-200z" stroke="#000" stroke-width="2" fill="#fff"/><use xlink:href="#a" transform="matrix(1,0,0,1,636.3207547169812,206.32075471698118) translate(10.649999999999991 57.8)"/><use xlink:href="#b" transform="matrix(1,0,0,1,636.3207547169812,206.32075471698118) translate(51.599999999999994 57.8)"/><use xlink:href="#c" transform="matrix(1,0,0,1,636.3207547169812,206.32075471698118) translate(71.6 57.8)"/><use xlink:href="#d" transform="matrix(1,0,0,1,636.3207547169812,206.32075471698118) translate(67 79.4)"/><path d="M301.32 21.32h200v140h-200z" stroke="#000" stroke-width="2" fill="#fff"/><use xlink:href="#e" transform="matrix(1,0,0,1,306.3207547169811,26.320754716981128) translate(66.025 57.8)"/><use xlink:href="#f" transform="matrix(1,0,0,1,306.3207547169811,26.320754716981128) translate(54.55 79.4)"/><path d="M301.32 201.32h200v140h-200z" stroke="#000" stroke-width="2" fill="#fff"/><use xlink:href="#g" transform="matrix(1,0,0,1,306.3207547169811,206.32075471698118) translate(18.775000000000006 47)"/><use xlink:href="#h" transform="matrix(1,0,0,1,306.3207547169811,206.32075471698118) translate(60.375 47)"/><use xlink:href="#i" transform="matrix(1,0,0,1,306.3207547169811,206.32075471698118) translate(55.55 68.60000000000001)"/><use xlink:href="#j" transform="matrix(1,0,0,1,306.3207547169811,206.32075471698118) translate(102.45 68.60000000000001)"/><use xlink:href="#k" transform="matrix(1,0,0,1,306.3207547169811,206.32075471698118) translate(1.6499999999999915 90.20000000000002)"/><use xlink:href="#l" transform="matrix(1,0,0,1,306.3207547169811,206.32075471698118) translate(60.49999999999999 90.20000000000002)"/><use xlink:href="#m" transform="matrix(1,0,0,1,306.3207547169811,206.32075471698118) translate(107.45 90.20000000000002)"/><path d="M301.32 381.32h200v140h-200z" stroke="#000" stroke-width="2" fill="#fff"/><use xlink:href="#n" transform="matrix(1,0,0,1,306.3207547169811,386.3207547169812) translate(24.07499999999999 57.8)"/><use xlink:href="#o" transform="matrix(1,0,0,1,306.3207547169811,386.3207547169812) translate(125.925 57.8)"/><use xlink:href="#p" transform="matrix(1,0,0,1,306.3207547169811,386.3207547169812) translate(44.074999999999996 79.4)"/><use xlink:href="#q" transform="matrix(1,0,0,1,306.3207547169811,386.3207547169812) translate(96.025 79.4)"/><path d="M21.32 191.32h180v160h-180z" stroke="#000" stroke-width="2" fill="#fff"/><use xlink:href="#g" transform="matrix(1,0,0,1,26.320754716981128,196.32075471698118) translate(8.775000000000006 57)"/><use xlink:href="#h" transform="matrix(1,0,0,1,26.320754716981128,196.32075471698118) translate(50.375 57)"/><use xlink:href="#r" transform="matrix(1,0,0,1,26.320754716981128,196.32075471698118) translate(46.5 78.60000000000001)"/><use xlink:href="#j" transform="matrix(1,0,0,1,26.320754716981128,196.32075471698118) translate(91.5 78.60000000000001)"/><use xlink:href="#s" transform="matrix(1,0,0,1,26.320754716981128,196.32075471698118) translate(34 100.20000000000002)"/><use xlink:href="#t" transform="matrix(1,0,0,1,26.320754716981128,196.32075471698118) translate(100 100.20000000000002)"/><path d="M951.32 341.32h200v140h-200z" stroke="#000" stroke-width="2" fill="#fff"/><use xlink:href="#u" transform="matrix(1,0,0,1,956.3207547169811,346.3207547169811) translate(37.574999999999996 57.8)"/><use xlink:href="#v" transform="matrix(1,0,0,1,956.3207547169811,346.3207547169811) translate(80.525 57.8)"/><use xlink:href="#d" transform="matrix(1,0,0,1,956.3207547169811,346.3207547169811) translate(67 79.4)"/><path d="M951.32 61.32h200v140h-200z" stroke="#000" stroke-width="2" fill="#fff"/><use xlink:href="#w" transform="matrix(1,0,0,1,956.3207547169811,66.32075471698113) translate(5.6499999999999915 57.8)"/><use xlink:href="#x" transform="matrix(1,0,0,1,956.3207547169811,66.32075471698113) translate(70.6 57.8)"/><use xlink:href="#y" transform="matrix(1,0,0,1,956.3207547169811,66.32075471698113) translate(73.525 79.4)"/><path d="M631.32 401.32h200v140h-200z" stroke="#000" stroke-width="2" fill="#fff"/><use xlink:href="#u" transform="matrix(1,0,0,1,636.3207547169811,406.32075471698107) translate(32.574999999999996 57.8)"/><use xlink:href="#z" transform="matrix(1,0,0,1,636.3207547169811,406.32075471698107) translate(75.525 57.8)"/><use xlink:href="#A" transform="matrix(1,0,0,1,636.3207547169811,406.32075471698107) translate(88.525 79.4)"/><path d="M371.32 661.32h200v140h-200z" stroke="#000" stroke-width="2" fill="#fff"/><use xlink:href="#B" transform="matrix(1,0,0,1,376.3207547169811,666.3207547169811) translate(54.074999999999996 47)"/><use xlink:href="#C" transform="matrix(1,0,0,1,376.3207547169811,666.3207547169811) translate(21.69999999999999 68.60000000000001)"/><use xlink:href="#D" transform="matrix(1,0,0,1,376.3207547169811,666.3207547169811) translate(134.45 68.60000000000001)"/><use xlink:href="#E" transform="matrix(1,0,0,1,376.3207547169811,666.3207547169811) translate(67.1 90.20000000000002)"/><path d="M631.32 661.32h200v140h-200z" stroke="#000" stroke-width="2" fill="#fff"/><use xlink:href="#F" transform="matrix(1,0,0,1,636.3207547169811,666.3207547169811) translate(31.599999999999994 47)"/><use xlink:href="#C" transform="matrix(1,0,0,1,636.3207547169811,666.3207547169811) translate(12.674999999999983 68.60000000000001)"/><use xlink:href="#G" transform="matrix(1,0,0,1,636.3207547169811,666.3207547169811) translate(125.425 68.60000000000001)"/><use xlink:href="#H" transform="matrix(1,0,0,1,636.3207547169811,666.3207547169811) translate(76 90.20000000000002)"/><path d="M901.32 661.32h200v140h-200z" stroke="#000" stroke-width="2" fill="#fff"/><use xlink:href="#I" transform="matrix(1,0,0,1,906.3207547169811,666.3207547169811) translate(52.599999999999994 57.8)"/><use xlink:href="#A" transform="matrix(1,0,0,1,906.3207547169811,666.3207547169811) translate(88.525 79.4)"/><path d="M630.32 271.32H520.56" stroke="#000" stroke-width="2" fill="none"/><path d="M631.32 272.32h-1v-2h1zM519.82 275.96l-14.26-4.64 14.26-4.63z"/><path d="M520.82 277.33l-18.5-6 18.5-6.02zm-12.03-6l10.02 3.25v-6.52z"/><path d="M731.32 342.32v39.76" stroke="#000" stroke-width="2" fill="none"/><path d="M732.32 342.32h-2v-1h2zM731.32 397.08l-4.63-14.26h9.26z"/><path d="M731.32 400.32l-6-18.5h12zm-3.26-16.5l3.26 10.03 3.26-10.03z"/><path d="M832.32 271.32h59v140h40.76" stroke="#000" stroke-width="2" fill="none"/><path d="M832.32 272.32h-1v-2h1zM947.08 411.32l-14.26 4.64v-9.27z"/><path d="M950.32 411.32l-18.5 6v-12zm-16.5 3.26l10.03-3.26-10.03-3.26z"/><path d="M832.32 271.32h59v-140h40.76" stroke="#000" stroke-width="2" fill="none"/><path d="M832.32 272.32h-1v-2h1zM947.08 131.32l-14.26 4.64v-9.27z"/><path d="M950.32 131.32l-18.5 6v-12zm-16.5 3.26l10.03-3.26-10.03-3.26z"/><path d="M630.32 271.32h-64v-180h-45.76" stroke="#000" stroke-width="2" fill="none"/><path d="M631.32 272.32h-1v-2h1zM519.82 95.96l-14.26-4.64 14.26-4.63z"/><path d="M520.82 97.33l-18.5-6 18.5-6.02zm-12.03-6l10.02 3.25v-6.52z"/><path d="M300.32 271.32h-79.76" stroke="#000" stroke-width="2" fill="none"/><path d="M301.32 272.32h-1v-2h1zM219.82 275.96l-14.26-4.64 14.26-4.63z"/><path d="M220.82 277.33l-18.5-6 18.5-6.02zm-12.03-6l10.02 3.25v-6.52z"/><path d="M300.32 91.32h-49v180h-30.76" stroke="#000" stroke-width="2" fill="none"/><path d="M301.32 92.32h-1v-2h1zM219.82 275.96l-14.26-4.64 14.26-4.63z"/><path d="M220.82 277.33l-18.5-6 18.5-6.02zm-12.03-6l10.02 3.25v-6.52z"/><path d="M300.32 451.32h-49v-180h-30.76" stroke="#000" stroke-width="2" fill="none"/><path d="M301.32 452.32h-1v-2h1zM219.82 275.96l-14.26-4.64 14.26-4.63z"/><path d="M220.82 277.33l-18.5-6 18.5-6.02zm-12.03-6l10.02 3.25v-6.52z"/><path d="M731.32 542.32v59h270v40.76" stroke="#000" stroke-width="2" fill="none"/><path d="M732.32 542.32h-2v-1h2zM1001.32 657.08l-4.63-14.26h9.26z"/><path d="M1001.32 660.32l-6-18.5h12zm-3.26-16.5l3.26 10.03 3.26-10.03z"/><path d="M731.32 542.32v59h-260v40.76" stroke="#000" stroke-width="2" fill="none"/><path d="M732.32 542.32h-2v-1h2zM471.32 657.08l-4.63-14.26h9.26z"/><path d="M471.32 660.32l-6-18.5h12zm-3.26-16.5l3.26 10.03 3.26-10.03z"/><path d="M611.32 131.32h240v60h-240z" stroke="#000" stroke-opacity="0" stroke-width="2" fill="#fff" fill-opacity="0"/><g><use xlink:href="#J" transform="matrix(1,0,0,1,616.3207547169811,136.32075471698113) translate(52.88888888888888 30.333333333333336)"/><use xlink:href="#K" transform="matrix(1,0,0,1,616.3207547169811,136.32075471698113) translate(120.88888888888889 30.333333333333336)"/></g><path d="M401.32 342.32v19.76" stroke="#000" stroke-width="2" fill="none"/><path d="M402.32 342.32h-2v-1h2zM401.32 377.08l-4.63-14.26h9.26z"/><path d="M401.32 380.32l-6-18.5h12zm-3.26-16.5l3.26 10.03 3.26-10.03z"/><path d="M731.32 542.32v99.76" stroke="#000" stroke-width="2" fill="none"/><path d="M732.32 542.32h-2v-1h2zM731.32 657.08l-4.63-14.26h9.26z"/><path d="M731.32 660.32l-6-18.5h12zm-3.26-16.5l3.26 10.03 3.26-10.03z"/><defs><path d="M33 0v-248h34V0H33" id="L"/><path d="M117-194c89-4 53 116 60 194h-32v-121c0-31-8-49-39-48C34-167 62-67 57 0H25l-1-190h30c1 10-1 24 2 32 11-22 29-35 61-36" id="M"/><path d="M59-47c-2 24 18 29 38 22v24C64 9 27 4 27-40v-127H5v-23h24l9-43h21v43h35v23H59v120" id="N"/><path d="M114-163C36-179 61-72 57 0H25l-1-190h30c1 12-1 29 2 39 6-27 23-49 58-41v29" id="O"/><path d="M100-194c62-1 85 37 85 99 1 63-27 99-86 99S16-35 15-95c0-66 28-99 85-99zM99-20c44 1 53-31 53-75 0-43-8-75-51-75s-53 32-53 75 10 74 51 75" id="P"/><g id="a"><use transform="matrix(0.05,0,0,0.05,0,0)" xlink:href="#L"/><use transform="matrix(0.05,0,0,0.05,5,0)" xlink:href="#M"/><use transform="matrix(0.05,0,0,0.05,15,0)" xlink:href="#N"/><use transform="matrix(0.05,0,0,0.05,20,0)" xlink:href="#O"/><use transform="matrix(0.05,0,0,0.05,25.950000000000003,0)" xlink:href="#P"/></g><g id="b"><use transform="matrix(0.05,0,0,0.05,0,0)" xlink:href="#N"/><use transform="matrix(0.05,0,0,0.05,5,0)" xlink:href="#P"/></g><path d="M30-248c87 1 191-15 191 75 0 78-77 80-158 76V0H30v-248zm33 125c57 0 124 11 124-50 0-59-68-47-124-48v98" id="Q"/><path d="M177-190C167-65 218 103 67 71c-23-6-38-20-44-43l32-5c15 47 100 32 89-28v-30C133-14 115 1 83 1 29 1 15-40 15-95c0-56 16-97 71-98 29-1 48 16 59 35 1-10 0-23 2-32h30zM94-22c36 0 50-32 50-73 0-42-14-75-50-75-39 0-46 34-46 75s6 73 46 73" id="R"/><path d="M141-36C126-15 110 5 73 4 37 3 15-17 15-53c-1-64 63-63 125-63 3-35-9-54-41-54-24 1-41 7-42 31l-33-3c5-37 33-52 76-52 45 0 72 20 72 64v82c-1 20 7 32 28 27v20c-31 9-61-2-59-35zM48-53c0 20 12 33 32 33 41-3 63-29 60-74-43 2-92-5-92 41" id="S"/><path d="M210-169c-67 3-38 105-44 169h-31v-121c0-29-5-50-35-48C34-165 62-65 56 0H25l-1-190h30c1 10-1 24 2 32 10-44 99-50 107 0 11-21 27-35 58-36 85-2 47 119 55 194h-31v-121c0-29-5-49-35-48" id="T"/><path d="M24-231v-30h32v30H24zM24 0v-190h32V0H24" id="U"/><g id="c"><use transform="matrix(0.05,0,0,0.05,0,0)" xlink:href="#Q"/><use transform="matrix(0.05,0,0,0.05,12,0)" xlink:href="#O"/><use transform="matrix(0.05,0,0,0.05,17.95,0)" xlink:href="#P"/><use transform="matrix(0.05,0,0,0.05,27.950000000000003,0)" xlink:href="#R"/><use transform="matrix(0.05,0,0,0.05,37.95,0)" xlink:href="#O"/><use transform="matrix(0.05,0,0,0.05,43.900000000000006,0)" xlink:href="#S"/><use transform="matrix(0.05,0,0,0.05,53.900000000000006,0)" xlink:href="#T"/><use transform="matrix(0.05,0,0,0.05,68.85000000000001,0)" xlink:href="#T"/><use transform="matrix(0.05,0,0,0.05,83.80000000000001,0)" xlink:href="#U"/><use transform="matrix(0.05,0,0,0.05,87.75000000000001,0)" xlink:href="#M"/><use transform="matrix(0.05,0,0,0.05,97.75000000000001,0)" xlink:href="#R"/></g><path d="M179-190L93 31C79 59 56 82 12 73V49c39 6 53-20 64-50L1-190h34L92-34l54-156h33" id="V"/><path d="M106-169C34-169 62-67 57 0H25v-261h32l-1 103c12-21 28-36 61-36 89 0 53 116 60 194h-32v-121c2-32-8-49-39-48" id="W"/><g id="d"><use transform="matrix(0.05,0,0,0.05,0,0)" xlink:href="#Q"/><use transform="matrix(0.05,0,0,0.05,12,0)" xlink:href="#V"/><use transform="matrix(0.05,0,0,0.05,21,0)" xlink:href="#N"/><use transform="matrix(0.05,0,0,0.05,26,0)" xlink:href="#W"/><use transform="matrix(0.05,0,0,0.05,36,0)" xlink:href="#P"/><use transform="matrix(0.05,0,0,0.05,46,0)" xlink:href="#M"/></g><path d="M143 4C61 4 22-44 18-125c-5-107 100-154 193-111 17 8 29 25 37 43l-32 9c-13-25-37-40-76-40-61 0-88 39-88 99 0 61 29 100 91 101 35 0 62-11 79-27v-45h-74v-28h105v86C228-13 192 4 143 4" id="X"/><path d="M100-194c63 0 86 42 84 106H49c0 40 14 67 53 68 26 1 43-12 49-29l28 8c-11 28-37 45-77 45C44 4 14-33 15-96c1-61 26-98 85-98zm52 81c6-60-76-77-97-28-3 7-6 17-6 28h103" id="Y"/><path d="M135-143c-3-34-86-38-87 0 15 53 115 12 119 90S17 21 10-45l28-5c4 36 97 45 98 0-10-56-113-15-118-90-4-57 82-63 122-42 12 7 21 19 24 35" id="Z"/><g id="e"><use transform="matrix(0.05,0,0,0.05,0,0)" xlink:href="#X"/><use transform="matrix(0.05,0,0,0.05,14,0)" xlink:href="#S"/><use transform="matrix(0.05,0,0,0.05,24,0)" xlink:href="#T"/><use transform="matrix(0.05,0,0,0.05,38.95,0)" xlink:href="#Y"/><use transform="matrix(0.05,0,0,0.05,48.95,0)" xlink:href="#Z"/></g><path d="M153-248C145-148 188 4 80 4 36 3 13-21 6-62l32-5c4 25 16 42 43 43 27 0 39-20 39-49v-147H72v-28h81" id="aa"/><path d="M108 0H70L1-190h34L89-25l56-165h34" id="ab"/><path d="M96-169c-40 0-48 33-48 73s9 75 48 75c24 0 41-14 43-38l32 2c-6 37-31 61-74 61-59 0-76-41-82-99-10-93 101-131 147-64 4 7 5 14 7 22l-32 3c-4-21-16-35-41-35" id="ac"/><path d="M115-194c55 1 70 41 70 98S169 2 115 4C84 4 66-9 55-30l1 105H24l-1-265h31l2 30c10-21 28-34 59-34zm-8 174c40 0 45-34 45-75s-6-73-45-74c-42 0-51 32-51 76 0 43 10 73 51 73" id="ad"/><g id="f"><use transform="matrix(0.05,0,0,0.05,0,0)" xlink:href="#aa"/><use transform="matrix(0.05,0,0,0.05,9,0)" xlink:href="#S"/><use transform="matrix(0.05,0,0,0.05,19,0)" xlink:href="#ab"/><use transform="matrix(0.05,0,0,0.05,28,0)" xlink:href="#S"/><use transform="matrix(0.05,0,0,0.05,38,0)" xlink:href="#Z"/><use transform="matrix(0.05,0,0,0.05,47,0)" xlink:href="#ac"/><use transform="matrix(0.05,0,0,0.05,56,0)" xlink:href="#O"/><use transform="matrix(0.05,0,0,0.05,61.95,0)" xlink:href="#U"/><use transform="matrix(0.05,0,0,0.05,65.9,0)" xlink:href="#ad"/><use transform="matrix(0.05,0,0,0.05,75.9,0)" xlink:href="#N"/></g><path d="M266 0h-40l-56-210L115 0H75L2-248h35L96-30l15-64 43-154h32l59 218 59-218h35" id="ae"/><path d="M115-194c53 0 69 39 70 98 0 66-23 100-70 100C84 3 66-7 56-30L54 0H23l1-261h32v101c10-23 28-34 59-34zm-8 174c40 0 45-34 45-75 0-40-5-75-45-74-42 0-51 32-51 76 0 43 10 73 51 73" id="af"/><g id="g"><use transform="matrix(0.05,0,0,0.05,0,0)" xlink:href="#ae"/><use transform="matrix(0.05,0,0,0.05,16.599999999999998,0)" xlink:href="#Y"/><use transform="matrix(0.05,0,0,0.05,26.599999999999994,0)" xlink:href="#af"/></g><path d="M30-248c118-7 216 8 213 122C240-48 200 0 122 0H30v-248zM63-27c89 8 146-16 146-99s-60-101-146-95v194" id="ag"/><path d="M24 0v-261h32V0H24" id="ah"/><path d="M33-154v-36h34v36H33zM33 0v-36h34V0H33" id="ai"/><g id="h"><use transform="matrix(0.05,0,0,0.05,0,0)" xlink:href="#ag"/><use transform="matrix(0.05,0,0,0.05,12.950000000000001,0)" xlink:href="#Y"/><use transform="matrix(0.05,0,0,0.05,22.950000000000003,0)" xlink:href="#ab"/><use transform="matrix(0.05,0,0,0.05,31.950000000000003,0)" xlink:href="#Y"/><use transform="matrix(0.05,0,0,0.05,41.95,0)" xlink:href="#ah"/><use transform="matrix(0.05,0,0,0.05,45.900000000000006,0)" xlink:href="#P"/><use transform="matrix(0.05,0,0,0.05,55.900000000000006,0)" xlink:href="#ad"/><use transform="matrix(0.05,0,0,0.05,65.9,0)" xlink:href="#T"/><use transform="matrix(0.05,0,0,0.05,80.85000000000001,0)" xlink:href="#Y"/><use transform="matrix(0.05,0,0,0.05,90.85000000000001,0)" xlink:href="#M"/><use transform="matrix(0.05,0,0,0.05,100.85000000000001,0)" xlink:href="#N"/><use transform="matrix(0.05,0,0,0.05,105.85000000000001,0)" xlink:href="#ai"/></g><path d="M63-220v92h138v28H63V0H30v-248h175v28H63" id="aj"/><g id="i"><use transform="matrix(0.05,0,0,0.05,0,0)" xlink:href="#aj"/><use transform="matrix(0.05,0,0,0.05,10.950000000000001,0)" xlink:href="#O"/><use transform="matrix(0.05,0,0,0.05,16.900000000000002,0)" xlink:href="#P"/><use transform="matrix(0.05,0,0,0.05,26.900000000000002,0)" xlink:href="#M"/><use transform="matrix(0.05,0,0,0.05,36.900000000000006,0)" xlink:href="#N"/></g><path d="M30 0v-248h187v28H63v79h144v27H63v87h162V0H30" id="ak"/><path d="M85-194c31 0 48 13 60 33l-1-100h32l1 261h-30c-2-10 0-23-3-31C134-8 116 4 85 4 32 4 16-35 15-94c0-66 23-100 70-100zm9 24c-40 0-46 34-46 75 0 40 6 74 45 74 42 0 51-32 51-76 0-42-9-74-50-73" id="al"/><g id="j"><use transform="matrix(0.05,0,0,0.05,0,0)" xlink:href="#ak"/><use transform="matrix(0.05,0,0,0.05,12,0)" xlink:href="#M"/><use transform="matrix(0.05,0,0,0.05,22,0)" xlink:href="#al"/></g><path d="M197 0v-115H63V0H30v-248h33v105h134v-105h34V0h-34" id="am"/><path d="M127-220V0H93v-220H8v-28h204v28h-85" id="an"/><path d="M240 0l2-218c-23 76-54 145-80 218h-23L58-218 59 0H30v-248h44l77 211c21-75 51-140 76-211h43V0h-30" id="ao"/><path d="M30 0v-248h33v221h125V0H30" id="ap"/><path d="M68-38c1 34 0 65-14 84H32c9-13 17-26 17-46H33v-38h35" id="aq"/><g id="k"><use transform="matrix(0.05,0,0,0.05,0,0)" xlink:href="#am"/><use transform="matrix(0.05,0,0,0.05,12.950000000000001,0)" xlink:href="#an"/><use transform="matrix(0.05,0,0,0.05,23.900000000000002,0)" xlink:href="#ao"/><use transform="matrix(0.05,0,0,0.05,38.85,0)" xlink:href="#ap"/><use transform="matrix(0.05,0,0,0.05,48.85,0)" xlink:href="#aq"/></g><path d="M212-179c-10-28-35-45-73-45-59 0-87 40-87 99 0 60 29 101 89 101 43 0 62-24 78-52l27 14C228-24 195 4 139 4 59 4 22-46 18-125c-6-104 99-153 187-111 19 9 31 26 39 46" id="ar"/><path d="M185-189c-5-48-123-54-124 2 14 75 158 14 163 119 3 78-121 87-175 55-17-10-28-26-33-46l33-7c5 56 141 63 141-1 0-78-155-14-162-118-5-82 145-84 179-34 5 7 8 16 11 25" id="as"/><g id="l"><use transform="matrix(0.05,0,0,0.05,0,0)" xlink:href="#ar"/><use transform="matrix(0.05,0,0,0.05,12.950000000000001,0)" xlink:href="#as"/><use transform="matrix(0.05,0,0,0.05,24.950000000000003,0)" xlink:href="#as"/><use transform="matrix(0.05,0,0,0.05,36.95,0)" xlink:href="#aq"/></g><g id="m"><use transform="matrix(0.05,0,0,0.05,0,0)" xlink:href="#aa"/><use transform="matrix(0.05,0,0,0.05,9,0)" xlink:href="#S"/><use transform="matrix(0.05,0,0,0.05,19,0)" xlink:href="#ab"/><use transform="matrix(0.05,0,0,0.05,28,0)" xlink:href="#S"/><use transform="matrix(0.05,0,0,0.05,38,0)" xlink:href="#Z"/><use transform="matrix(0.05,0,0,0.05,47,0)" xlink:href="#ac"/><use transform="matrix(0.05,0,0,0.05,56,0)" xlink:href="#O"/><use transform="matrix(0.05,0,0,0.05,61.95,0)" xlink:href="#U"/><use transform="matrix(0.05,0,0,0.05,65.9,0)" xlink:href="#ad"/><use transform="matrix(0.05,0,0,0.05,75.9,0)" xlink:href="#N"/></g><path d="M140-251c81 0 123 46 123 126C263-46 219 4 140 4 59 4 17-45 17-125s42-126 123-126zm0 227c63 0 89-41 89-101s-29-99-89-99c-61 0-89 39-89 99S79-25 140-24" id="at"/><path d="M0 4l72-265h28L28 4H0" id="au"/><path d="M205 0l-28-72H64L36 0H1l101-248h38L239 0h-34zm-38-99l-47-123c-12 45-31 82-46 123h93" id="av"/><g id="n"><use transform="matrix(0.05,0,0,0.05,0,0)" xlink:href="#U"/><use transform="matrix(0.05,0,0,0.05,3.95,0)" xlink:href="#at"/><use transform="matrix(0.05,0,0,0.05,17.95,0)" xlink:href="#as"/><use transform="matrix(0.05,0,0,0.05,29.950000000000003,0)" xlink:href="#au"/><use transform="matrix(0.05,0,0,0.05,34.95,0)" xlink:href="#av"/><use transform="matrix(0.05,0,0,0.05,46.95,0)" xlink:href="#M"/><use transform="matrix(0.05,0,0,0.05,56.95,0)" xlink:href="#al"/><use transform="matrix(0.05,0,0,0.05,66.95,0)" xlink:href="#O"/><use transform="matrix(0.05,0,0,0.05,72.9,0)" xlink:href="#P"/><use transform="matrix(0.05,0,0,0.05,82.9,0)" xlink:href="#U"/><use transform="matrix(0.05,0,0,0.05,86.85000000000001,0)" xlink:href="#al"/></g><g id="o"><use transform="matrix(0.05,0,0,0.05,0,0)" xlink:href="#av"/><use transform="matrix(0.05,0,0,0.05,12,0)" xlink:href="#ad"/><use transform="matrix(0.05,0,0,0.05,22,0)" xlink:href="#ad"/><use transform="matrix(0.05,0,0,0.05,32,0)" xlink:href="#Z"/></g><path d="M233-177c-1 41-23 64-60 70L243 0h-38l-65-103H63V0H30v-248c88 3 205-21 203 71zM63-129c60-2 137 13 137-47 0-61-80-42-137-45v92" id="aw"/><g id="p"><use transform="matrix(0.05,0,0,0.05,0,0)" xlink:href="#aw"/><use transform="matrix(0.05,0,0,0.05,12.950000000000001,0)" xlink:href="#Y"/><use transform="matrix(0.05,0,0,0.05,22.950000000000003,0)" xlink:href="#S"/><use transform="matrix(0.05,0,0,0.05,32.95,0)" xlink:href="#ac"/><use transform="matrix(0.05,0,0,0.05,41.95,0)" xlink:href="#N"/></g><path d="M190 0L58-211 59 0H30v-248h39L202-35l-2-213h31V0h-41" id="ax"/><g id="q"><use transform="matrix(0.05,0,0,0.05,0,0)" xlink:href="#ax"/><use transform="matrix(0.05,0,0,0.05,12.950000000000001,0)" xlink:href="#S"/><use transform="matrix(0.05,0,0,0.05,22.950000000000003,0)" xlink:href="#N"/><use transform="matrix(0.05,0,0,0.05,27.950000000000003,0)" xlink:href="#U"/><use transform="matrix(0.05,0,0,0.05,31.900000000000002,0)" xlink:href="#ab"/><use transform="matrix(0.05,0,0,0.05,40.900000000000006,0)" xlink:href="#Y"/></g><path d="M160-131c35 5 61 23 61 61C221 17 115-2 30 0v-248c76 3 177-17 177 60 0 33-19 50-47 57zm-97-11c50-1 110 9 110-42 0-47-63-36-110-37v79zm0 115c55-2 124 14 124-45 0-56-70-42-124-44v89" id="ay"/><path d="M143 0L79-87 56-68V0H24v-261h32v163l83-92h37l-77 82L181 0h-38" id="az"/><g id="r"><use transform="matrix(0.05,0,0,0.05,0,0)" xlink:href="#ay"/><use transform="matrix(0.05,0,0,0.05,12,0)" xlink:href="#S"/><use transform="matrix(0.05,0,0,0.05,22,0)" xlink:href="#ac"/><use transform="matrix(0.05,0,0,0.05,31,0)" xlink:href="#az"/></g><g id="s"><use transform="matrix(0.05,0,0,0.05,0,0)" xlink:href="#Q"/><use transform="matrix(0.05,0,0,0.05,12,0)" xlink:href="#V"/><use transform="matrix(0.05,0,0,0.05,21,0)" xlink:href="#N"/><use transform="matrix(0.05,0,0,0.05,26,0)" xlink:href="#W"/><use transform="matrix(0.05,0,0,0.05,36,0)" xlink:href="#P"/><use transform="matrix(0.05,0,0,0.05,46,0)" xlink:href="#M"/><use transform="matrix(0.05,0,0,0.05,56,0)" xlink:href="#aq"/></g><path d="M140-251c81 0 123 46 123 126C263-53 228-8 163 1c7 30 30 48 69 40v23c-55 16-95-15-103-61C56-3 17-48 17-125c0-80 42-126 123-126zm0 227c63 0 89-41 89-101s-29-99-89-99c-61 0-89 39-89 99S79-25 140-24" id="aA"/><g id="t"><use transform="matrix(0.05,0,0,0.05,0,0)" xlink:href="#as"/><use transform="matrix(0.05,0,0,0.05,12,0)" xlink:href="#aA"/><use transform="matrix(0.05,0,0,0.05,26,0)" xlink:href="#ap"/></g><g id="u"><use transform="matrix(0.05,0,0,0.05,0,0)" xlink:href="#ag"/><use transform="matrix(0.05,0,0,0.05,12.950000000000001,0)" xlink:href="#S"/><use transform="matrix(0.05,0,0,0.05,22.950000000000003,0)" xlink:href="#N"/><use transform="matrix(0.05,0,0,0.05,27.950000000000003,0)" xlink:href="#S"/></g><g id="v"><use transform="matrix(0.05,0,0,0.05,0,0)" xlink:href="#av"/><use transform="matrix(0.05,0,0,0.05,12,0)" xlink:href="#M"/><use transform="matrix(0.05,0,0,0.05,22,0)" xlink:href="#S"/><use transform="matrix(0.05,0,0,0.05,32,0)" xlink:href="#ah"/><use transform="matrix(0.05,0,0,0.05,35.95,0)" xlink:href="#V"/><use transform="matrix(0.05,0,0,0.05,44.95,0)" xlink:href="#N"/><use transform="matrix(0.05,0,0,0.05,49.95,0)" xlink:href="#U"/><use transform="matrix(0.05,0,0,0.05,53.900000000000006,0)" xlink:href="#ac"/><use transform="matrix(0.05,0,0,0.05,62.900000000000006,0)" xlink:href="#Z"/></g><g id="w"><use transform="matrix(0.05,0,0,0.05,0,0)" xlink:href="#as"/><use transform="matrix(0.05,0,0,0.05,12,0)" xlink:href="#V"/><use transform="matrix(0.05,0,0,0.05,21,0)" xlink:href="#Z"/><use transform="matrix(0.05,0,0,0.05,30,0)" xlink:href="#N"/><use transform="matrix(0.05,0,0,0.05,35,0)" xlink:href="#Y"/><use transform="matrix(0.05,0,0,0.05,45,0)" xlink:href="#T"/></g><g id="x"><use transform="matrix(0.05,0,0,0.05,0,0)" xlink:href="#av"/><use transform="matrix(0.05,0,0,0.05,12,0)" xlink:href="#al"/><use transform="matrix(0.05,0,0,0.05,22,0)" xlink:href="#T"/><use transform="matrix(0.05,0,0,0.05,36.95,0)" xlink:href="#U"/><use transform="matrix(0.05,0,0,0.05,40.900000000000006,0)" xlink:href="#M"/><use transform="matrix(0.05,0,0,0.05,50.900000000000006,0)" xlink:href="#U"/><use transform="matrix(0.05,0,0,0.05,54.85,0)" xlink:href="#Z"/><use transform="matrix(0.05,0,0,0.05,63.85,0)" xlink:href="#N"/><use transform="matrix(0.05,0,0,0.05,68.85000000000001,0)" xlink:href="#O"/><use transform="matrix(0.05,0,0,0.05,74.80000000000001,0)" xlink:href="#S"/><use transform="matrix(0.05,0,0,0.05,84.80000000000001,0)" xlink:href="#N"/><use transform="matrix(0.05,0,0,0.05,89.80000000000001,0)" xlink:href="#U"/><use transform="matrix(0.05,0,0,0.05,93.75000000000001,0)" xlink:href="#P"/><use transform="matrix(0.05,0,0,0.05,103.75,0)" xlink:href="#M"/></g><path d="M84 4C-5 8 30-112 23-190h32v120c0 31 7 50 39 49 72-2 45-101 50-169h31l1 190h-30c-1-10 1-25-2-33-11 22-28 36-60 37" id="aB"/><path d="M141 0L90-78 38 0H4l68-98-65-92h35l48 74 47-74h35l-64 92 68 98h-35" id="aC"/><g id="y"><use transform="matrix(0.05,0,0,0.05,0,0)" xlink:href="#ap"/><use transform="matrix(0.05,0,0,0.05,10,0)" xlink:href="#U"/><use transform="matrix(0.05,0,0,0.05,13.949999999999998,0)" xlink:href="#M"/><use transform="matrix(0.05,0,0,0.05,23.95,0)" xlink:href="#aB"/><use transform="matrix(0.05,0,0,0.05,33.95,0)" xlink:href="#aC"/></g><g id="z"><use transform="matrix(0.05,0,0,0.05,0,0)" xlink:href="#as"/><use transform="matrix(0.05,0,0,0.05,12,0)" xlink:href="#N"/><use transform="matrix(0.05,0,0,0.05,17,0)" xlink:href="#O"/><use transform="matrix(0.05,0,0,0.05,22.95,0)" xlink:href="#aB"/><use transform="matrix(0.05,0,0,0.05,32.95,0)" xlink:href="#ac"/><use transform="matrix(0.05,0,0,0.05,41.95,0)" xlink:href="#N"/><use transform="matrix(0.05,0,0,0.05,46.95,0)" xlink:href="#aB"/><use transform="matrix(0.05,0,0,0.05,56.95,0)" xlink:href="#O"/><use transform="matrix(0.05,0,0,0.05,62.900000000000006,0)" xlink:href="#Y"/><use transform="matrix(0.05,0,0,0.05,72.9,0)" xlink:href="#Z"/></g><use transform="matrix(0.05,0,0,0.05,0,0)" xlink:href="#ar" id="A"/><g id="B"><use transform="matrix(0.05,0,0,0.05,0,0)" xlink:href="#aj"/><use transform="matrix(0.05,0,0,0.05,10.950000000000001,0)" xlink:href="#aB"/><use transform="matrix(0.05,0,0,0.05,20.950000000000003,0)" xlink:href="#M"/><use transform="matrix(0.05,0,0,0.05,30.950000000000003,0)" xlink:href="#ac"/><use transform="matrix(0.05,0,0,0.05,39.95,0)" xlink:href="#N"/><use transform="matrix(0.05,0,0,0.05,44.95,0)" xlink:href="#U"/><use transform="matrix(0.05,0,0,0.05,48.900000000000006,0)" xlink:href="#P"/><use transform="matrix(0.05,0,0,0.05,58.900000000000006,0)" xlink:href="#M"/><use transform="matrix(0.05,0,0,0.05,68.9,0)" xlink:href="#S"/><use transform="matrix(0.05,0,0,0.05,78.9,0)" xlink:href="#ah"/></g><g id="C"><use transform="matrix(0.05,0,0,0.05,0,0)" xlink:href="#Q"/><use transform="matrix(0.05,0,0,0.05,12,0)" xlink:href="#O"/><use transform="matrix(0.05,0,0,0.05,17.95,0)" xlink:href="#P"/><use transform="matrix(0.05,0,0,0.05,27.950000000000003,0)" xlink:href="#R"/><use transform="matrix(0.05,0,0,0.05,37.95,0)" xlink:href="#O"/><use transform="matrix(0.05,0,0,0.05,43.900000000000006,0)" xlink:href="#S"/><use transform="matrix(0.05,0,0,0.05,53.900000000000006,0)" xlink:href="#T"/><use transform="matrix(0.05,0,0,0.05,68.85000000000001,0)" xlink:href="#T"/><use transform="matrix(0.05,0,0,0.05,83.80000000000001,0)" xlink:href="#U"/><use transform="matrix(0.05,0,0,0.05,87.75000000000001,0)" xlink:href="#M"/><use transform="matrix(0.05,0,0,0.05,97.75000000000001,0)" xlink:href="#R"/></g><path d="M87 75C49 33 22-17 22-94c0-76 28-126 65-167h31c-38 41-64 92-64 168S80 34 118 75H87" id="aD"/><path d="M33-261c38 41 65 92 65 168S71 34 33 75H2C39 34 66-17 66-93S39-220 2-261h31" id="aE"/><g id="D"><use transform="matrix(0.05,0,0,0.05,0,0)" xlink:href="#aD"/><use transform="matrix(0.05,0,0,0.05,5.95,0)" xlink:href="#aj"/><use transform="matrix(0.05,0,0,0.05,16.900000000000002,0)" xlink:href="#Q"/><use transform="matrix(0.05,0,0,0.05,28.900000000000002,0)" xlink:href="#aE"/></g><path d="M24-231v-30h32v30H24zM-9 49c24 4 33-6 33-30v-209h32V24c2 40-23 58-65 49V49" id="aF"/><g id="E"><use transform="matrix(0.05,0,0,0.05,0,0)" xlink:href="#ar"/><use transform="matrix(0.05,0,0,0.05,12.950000000000001,0)" xlink:href="#ah"/><use transform="matrix(0.05,0,0,0.05,16.900000000000002,0)" xlink:href="#P"/><use transform="matrix(0.05,0,0,0.05,26.900000000000002,0)" xlink:href="#aF"/><use transform="matrix(0.05,0,0,0.05,30.85,0)" xlink:href="#aB"/><use transform="matrix(0.05,0,0,0.05,40.85,0)" xlink:href="#O"/><use transform="matrix(0.05,0,0,0.05,46.800000000000004,0)" xlink:href="#Y"/></g><path d="M16-82v-28h88v28H16" id="aG"/><g id="F"><use transform="matrix(0.05,0,0,0.05,0,0)" xlink:href="#at"/><use transform="matrix(0.05,0,0,0.05,14,0)" xlink:href="#af"/><use transform="matrix(0.05,0,0,0.05,24,0)" xlink:href="#aF"/><use transform="matrix(0.05,0,0,0.05,27.950000000000003,0)" xlink:href="#Y"/><use transform="matrix(0.05,0,0,0.05,37.95,0)" xlink:href="#ac"/><use transform="matrix(0.05,0,0,0.05,46.95,0)" xlink:href="#N"/><use transform="matrix(0.05,0,0,0.05,51.95,0)" xlink:href="#aG"/><use transform="matrix(0.05,0,0,0.05,57.900000000000006,0)" xlink:href="#at"/><use transform="matrix(0.05,0,0,0.05,71.9,0)" xlink:href="#O"/><use transform="matrix(0.05,0,0,0.05,77.85000000000001,0)" xlink:href="#U"/><use transform="matrix(0.05,0,0,0.05,81.80000000000001,0)" xlink:href="#Y"/><use transform="matrix(0.05,0,0,0.05,91.80000000000001,0)" xlink:href="#M"/><use transform="matrix(0.05,0,0,0.05,101.80000000000001,0)" xlink:href="#N"/><use transform="matrix(0.05,0,0,0.05,106.80000000000001,0)" xlink:href="#Y"/><use transform="matrix(0.05,0,0,0.05,116.80000000000001,0)" xlink:href="#al"/></g><g id="G"><use transform="matrix(0.05,0,0,0.05,0,0)" xlink:href="#aD"/><use transform="matrix(0.05,0,0,0.05,5.95,0)" xlink:href="#at"/><use transform="matrix(0.05,0,0,0.05,19.95,0)" xlink:href="#at"/><use transform="matrix(0.05,0,0,0.05,33.95,0)" xlink:href="#Q"/><use transform="matrix(0.05,0,0,0.05,45.95,0)" xlink:href="#aE"/></g><g id="H"><use transform="matrix(0.05,0,0,0.05,0,0)" xlink:href="#aa"/><use transform="matrix(0.05,0,0,0.05,9,0)" xlink:href="#S"/><use transform="matrix(0.05,0,0,0.05,19,0)" xlink:href="#ab"/><use transform="matrix(0.05,0,0,0.05,28,0)" xlink:href="#S"/></g><g id="I"><use transform="matrix(0.05,0,0,0.05,0,0)" xlink:href="#av"/><use transform="matrix(0.05,0,0,0.05,12,0)" xlink:href="#ah"/><use transform="matrix(0.05,0,0,0.05,15.949999999999998,0)" xlink:href="#R"/><use transform="matrix(0.05,0,0,0.05,25.950000000000003,0)" xlink:href="#P"/><use transform="matrix(0.05,0,0,0.05,35.95,0)" xlink:href="#O"/><use transform="matrix(0.05,0,0,0.05,41.900000000000006,0)" xlink:href="#U"/><use transform="matrix(0.05,0,0,0.05,45.85000000000001,0)" xlink:href="#N"/><use transform="matrix(0.05,0,0,0.05,50.85000000000001,0)" xlink:href="#W"/><use transform="matrix(0.05,0,0,0.05,60.85,0)" xlink:href="#T"/><use transform="matrix(0.05,0,0,0.05,75.80000000000001,0)" xlink:href="#Z"/></g><path fill="#19967d" d="M169-182c-1-43-94-46-97-3 18 66 151 10 154 114 3 95-165 93-204 36-6-8-10-19-12-30l50-8c3 46 112 56 116 5-17-69-150-10-154-114-4-87 153-88 188-35 5 8 8 18 10 28" id="aH"/><path fill="#19967d" d="M115-3C79 11 28 4 28-45v-112H4v-33h27l15-45h31v45h36v33H77v99c-1 23 16 31 38 25v30" id="aI"/><path fill="#19967d" d="M133-34C117-15 103 5 69 4 32 3 11-16 11-54c-1-60 55-63 116-61 1-26-3-47-28-47-18 1-26 9-28 27l-52-2c7-38 36-58 82-57s74 22 75 68l1 82c-1 14 12 18 25 15v27c-30 8-71 5-69-32zm-48 3c29 0 43-24 42-57-32 0-66-3-65 30 0 17 8 27 23 27" id="aJ"/><path fill="#19967d" d="M135-150c-39-12-60 13-60 57V0H25l-1-190h47c2 13-1 29 3 40 6-28 27-53 61-41v41" id="aK"/><g id="J"><use transform="matrix(0.07407407407407408,0,0,0.07407407407407408,0,0)" xlink:href="#aH"/><use transform="matrix(0.07407407407407408,0,0,0.07407407407407408,17.77777777777778,0)" xlink:href="#aI"/><use transform="matrix(0.07407407407407408,0,0,0.07407407407407408,26.592592592592595,0)" xlink:href="#aJ"/><use transform="matrix(0.07407407407407408,0,0,0.07407407407407408,41.40740740740741,0)" xlink:href="#aK"/><use transform="matrix(0.07407407407407408,0,0,0.07407407407407408,51.777777777777786,0)" xlink:href="#aI"/></g><path fill="#19967d" d="M114-157C55-157 80-60 75 0H25v-261h50l-1 109c12-26 28-41 61-42 86-1 58 113 63 194h-50c-7-57 23-157-34-157" id="aL"/><path fill="#19967d" d="M185-48c-13 30-37 53-82 52C43 2 14-33 14-96s30-98 90-98c62 0 83 45 84 108H66c0 31 8 55 39 56 18 0 30-7 34-22zm-45-69c5-46-57-63-70-21-2 6-4 13-4 21h74" id="aM"/><g id="K"><use transform="matrix(0.07407407407407408,0,0,0.07407407407407408,0,0)" xlink:href="#aL"/><use transform="matrix(0.07407407407407408,0,0,0.07407407407407408,16.222222222222225,0)" xlink:href="#aM"/><use transform="matrix(0.07407407407407408,0,0,0.07407407407407408,31.03703703703704,0)" xlink:href="#aK"/><use transform="matrix(0.07407407407407408,0,0,0.07407407407407408,41.40740740740741,0)" xlink:href="#aM"/></g></defs></g></svg>